<?xml version="1.0" encoding="utf-8"?>
<svg width="1400" height="250" viewBox="0 0 1400 250" fill="none" stroke="none" version="1.1" xmlns:xlink="http://www.w3.org/1999/xlink" xmlns="http://www.w3.org/2000/svg">
  <defs>
    <path id="path_1" d="M1400 0L1400 0L1400 250L0 250L0 0L1400 0Z" />
    <rect id="rect_2" x="0" y="0" width="1400" height="250" />
    <clipPath id="clip_path_3">
      <use xlink:href="#rect_2" />
    </clipPath>
    <path id="path_4" d="M200 0L200 0L200 250L0 250L0 0L200 0Z" />
    <rect id="rect_5" x="0" y="0" width="200" height="250" />
    <clipPath id="clip_path_6">
      <use xlink:href="#rect_5" />
    </clipPath>
    <rect id="rect_7" x="0" y="0" width="200" height="224" />
    <clipPath id="clip_path_8">
      <use xlink:href="#rect_7" />
    </clipPath>
  </defs>
  <g id="Color" opacity="1" clip-path="url(#clip_path_3)">
    <g>
      <use xlink:href="#path_1" style="fill:#FFFFFF;fill-rule:evenodd;mix-blend-mode:normal;" />
      <g>
        <g id="Black" opacity="1" clip-path="url(#clip_path_6)">
          <g>
            <use xlink:href="#path_4" style="fill:#121212;fill-rule:evenodd;mix-blend-mode:normal;" />
            <g>
              <g clip-path="url(#clip_path_8)" style="mix-blend-mode:normal;" transform="translate(0 181.039)">
                <path d="M9.33398 21.2168Q8.8418 23.6777 8.8418 24.0117L8.80664 24.1699L8.80664 24.3984Q8.80664 24.5742 9.07031 24.5742L12.252 24.5742Q12.9199 24.5742 12.9199 23.8887L13.0078 23.4492Q13.2012 22.4824 13.2012 22.3066L13.3242 21.6211Q13.5352 20.5664 13.5352 20.3906L13.5703 20.2324L13.5703 20.0039Q13.5703 19.8105 12.8848 19.8105L12.0059 19.8105L11.9004 19.8281L11.5488 19.8281Q9.89648 19.8281 9.73828 19.8984Q9.33398 20.0742 9.33398 21.2168ZM20.8477 18.0527L20.8477 18.5625Q20.8477 19.6523 18.8965 19.8281Q17.6836 19.9336 17.3848 20.1797Q16.4355 20.9355 16.4355 23.8711Q16.4355 24.416 17.4375 24.5566Q19.3008 24.8027 19.5381 25.0137Q19.7754 25.2246 19.7754 26.0332Q19.7754 26.8418 19.3799 27.2197Q18.9844 27.5977 17.6924 27.7383Q16.4004 27.8789 15.9609 28.3711Q15.5215 28.8633 15.0557 30.876Q14.5898 32.8887 14.4668 33.0996Q14.0625 33.8203 12.7529 33.8203Q11.4434 33.8203 11.4434 32.6777Q11.4434 32.0449 11.7158 30.5068Q11.9883 28.9688 11.9883 28.4678Q11.9883 27.9668 11.751 27.8086Q11.5137 27.6504 10.2041 27.6504Q8.89453 27.6504 8.52539 27.9404Q8.15625 28.2305 7.76074 30.208Q7.36523 32.1855 6.89941 33.0205Q6.43359 33.8555 5.56348 33.8555Q4.69336 33.8555 4.30664 33.6182Q3.91992 33.3809 3.91992 32.3965L4.06055 31.2363Q4.23633 29.7949 4.23633 29.2236Q4.23633 28.6523 4.00781 28.2832Q3.7793 27.9141 2.6543 27.457Q1.5293 27 1.5293 26.165Q1.5293 25.3301 2.23242 24.9258Q2.51367 24.7676 3.66504 24.5918Q4.81641 24.416 5.15039 24.0117Q5.90625 23.0801 5.90625 20.7598Q5.90625 20.25 5.625 20.0654Q5.34375 19.8809 4.30664 19.8018Q3.26953 19.7227 2.87402 19.5205Q2.47852 19.3184 2.47852 18.4307Q2.47852 17.543 3.18164 17.0859Q3.44531 16.9102 4.75488 16.7432Q6.06445 16.5762 6.44238 16.04Q6.82031 15.5039 7.20703 13.5088Q7.59375 11.5137 7.96289 11.1094Q8.33203 10.7051 9.59766 10.7051Q10.8633 10.7051 10.8633 11.7422Q10.8633 12.2695 10.582 14.0361Q10.3008 15.8027 10.3008 15.873Q10.3008 16.7871 11.8652 16.7871Q13.4297 16.7871 13.7988 16.4971Q14.168 16.207 14.5723 14.2207Q14.9766 12.2344 15.4072 11.417Q15.8379 10.5996 17.1035 10.5996Q18.3691 10.5996 18.3691 11.6367L17.9648 15.0996Q17.9648 15.9609 18.2285 16.2422Q18.4922 16.5234 19.6699 16.875Q20.8477 17.2266 20.8477 18.0527ZM24.9082 14.7656Q24.9082 13.9043 26.3672 12.9727Q30.5156 10.3359 31.9307 10.3359Q33.3457 10.3359 33.5566 11.6895Q33.5918 11.9004 33.5918 19.4766Q33.5918 27.0527 33.6445 27.3516Q33.8555 28.5117 34.6992 29.707Q35.543 30.8672 35.543 32.0625Q35.543 34.3828 31.9043 34.3828L30.7969 34.3828Q28.916 34.3828 27.6328 33.416Q26.9473 32.9062 26.9473 31.79Q26.9473 30.6738 27.7559 29.7422Q28.5645 28.8105 28.8457 27.8877Q29.127 26.9648 29.127 22.4385Q29.127 17.9121 28.6172 16.9805Q28.3008 16.418 26.6045 16.1104Q24.9082 15.8027 24.9082 14.7656ZM42.1172 16.8574Q40.8516 16.8574 40.8516 15.0381Q40.8516 13.2188 43.1104 11.6982Q45.3691 10.1777 48.252 10.1777L48.832 10.1777Q52.0137 10.1777 54.0352 11.9355Q56.0566 13.6934 56.0566 16.5322Q56.0566 19.3711 54.4658 21.4805Q52.875 23.5898 49.667 26.2705Q46.459 28.9512 46.459 29.9004Q46.459 30.5684 48.6562 30.5684Q50.8535 30.5684 52.4355 30.252Q54.0176 29.9355 54.8086 29.9355Q55.5996 29.9355 56.0215 30.4014Q56.4434 30.8672 56.4434 31.5527L56.4434 32.0273Q56.4434 33.5215 54.9668 34.0312Q54 34.3652 50.6777 34.3652L49.5527 34.3652L48.9902 34.3477L48.4277 34.3477Q42.1699 34.3477 41.4229 34.0752Q40.6758 33.8027 40.6758 32.7832L40.6758 32.291Q40.6758 30.7617 42.8379 28.1074Q43.6113 27.1582 46.3271 24.5654Q49.043 21.9727 49.7988 20.9883Q51.3457 18.9844 51.3457 17.3672Q51.3457 15.75 50.5283 14.7744Q49.7109 13.7988 48.1201 13.7988Q46.5293 13.7988 45.0527 15.0469Q42.9258 16.8574 42.1172 16.8574ZM60.9785 14.7656Q60.9785 13.9043 62.4375 12.9727Q66.5859 10.3359 68.001 10.3359Q69.416 10.3359 69.627 11.6895Q69.6621 11.9004 69.6621 19.4766Q69.6621 27.0527 69.7148 27.3516Q69.9258 28.5117 70.7695 29.707Q71.6133 30.8672 71.6133 32.0625Q71.6133 34.3828 67.9746 34.3828L66.8672 34.3828Q64.9863 34.3828 63.7031 33.416Q63.0176 32.9062 63.0176 31.79Q63.0176 30.6738 63.8262 29.7422Q64.6348 28.8105 64.916 27.8877Q65.1973 26.9648 65.1973 22.4385Q65.1973 17.9121 64.6875 16.9805Q64.3711 16.418 62.6748 16.1104Q60.9785 15.8027 60.9785 14.7656ZM78.1875 16.8574Q76.9219 16.8574 76.9219 15.0381Q76.9219 13.2188 79.1807 11.6982Q81.4395 10.1777 84.3223 10.1777L84.9023 10.1777Q88.084 10.1777 90.1055 11.9355Q92.127 13.6934 92.127 16.5322Q92.127 19.3711 90.5361 21.4805Q88.9453 23.5898 85.7373 26.2705Q82.5293 28.9512 82.5293 29.9004Q82.5293 30.5684 84.7266 30.5684Q86.9238 30.5684 88.5059 30.252Q90.0879 29.9355 90.8789 29.9355Q91.6699 29.9355 92.0918 30.4014Q92.5137 30.8672 92.5137 31.5527L92.5137 32.0273Q92.5137 33.5215 91.0371 34.0312Q90.0703 34.3652 86.748 34.3652L85.623 34.3652L85.0605 34.3477L84.498 34.3477Q78.2402 34.3477 77.4932 34.0752Q76.7461 33.8027 76.7461 32.7832L76.7461 32.291Q76.7461 30.7617 78.9082 28.1074Q79.6816 27.1582 82.3975 24.5654Q85.1133 21.9727 85.8691 20.9883Q87.416 18.9844 87.416 17.3672Q87.416 15.75 86.5986 14.7744Q85.7812 13.7988 84.1904 13.7988Q82.5996 13.7988 81.123 15.0469Q78.9961 16.8574 78.1875 16.8574ZM97.0488 14.7656Q97.0488 13.9043 98.5078 12.9727Q102.656 10.3359 104.071 10.3359Q105.486 10.3359 105.697 11.6895Q105.732 11.9004 105.732 19.4766Q105.732 27.0527 105.785 27.3516Q105.996 28.5117 106.84 29.707Q107.684 30.8672 107.684 32.0625Q107.684 34.3828 104.045 34.3828L102.938 34.3828Q101.057 34.3828 99.7734 33.416Q99.0879 32.9062 99.0879 31.79Q99.0879 30.6738 99.8965 29.7422Q100.705 28.8105 100.986 27.8877Q101.268 26.9648 101.268 22.4385Q101.268 17.9121 100.758 16.9805Q100.441 16.418 98.7451 16.1104Q97.0488 15.8027 97.0488 14.7656ZM114.258 16.8574Q112.992 16.8574 112.992 15.0381Q112.992 13.2188 115.251 11.6982Q117.51 10.1777 120.393 10.1777L120.973 10.1777Q124.154 10.1777 126.176 11.9355Q128.197 13.6934 128.197 16.5322Q128.197 19.3711 126.606 21.4805Q125.016 23.5898 121.808 26.2705Q118.6 28.9512 118.6 29.9004Q118.6 30.5684 120.797 30.5684Q122.994 30.5684 124.576 30.252Q126.158 29.9355 126.949 29.9355Q127.74 29.9355 128.162 30.4014Q128.584 30.8672 128.584 31.5527L128.584 32.0273Q128.584 33.5215 127.107 34.0312Q126.141 34.3652 122.818 34.3652L121.693 34.3652L121.131 34.3477L120.568 34.3477Q114.311 34.3477 113.563 34.0752Q112.816 33.8027 112.816 32.7832L112.816 32.291Q112.816 30.7617 114.979 28.1074Q115.752 27.1582 118.468 24.5654Q121.184 21.9727 121.939 20.9883Q123.486 18.9844 123.486 17.3672Q123.486 15.75 122.669 14.7744Q121.852 13.7988 120.261 13.7988Q118.67 13.7988 117.193 15.0469Q115.066 16.8574 114.258 16.8574Z" transform="translate(34.68 0)" style="fill:#F5F5FA;" />
              </g>
            </g>
          </g>
        </g>
        <g id="Red" opacity="1" clip-path="url(#clip_path_6)" transform="translate(200 0)">
          <g>
            <use xlink:href="#path_4" style="fill:#C75147;fill-rule:evenodd;mix-blend-mode:normal;" />
            <g>
              <g clip-path="url(#clip_path_8)" style="mix-blend-mode:normal;" transform="translate(0.286 181.039)">
                <path d="M9.33398 21.2168Q8.8418 23.6777 8.8418 24.0117L8.80664 24.1699L8.80664 24.3984Q8.80664 24.5742 9.07031 24.5742L12.252 24.5742Q12.9199 24.5742 12.9199 23.8887L13.0078 23.4492Q13.2012 22.4824 13.2012 22.3066L13.3242 21.6211Q13.5352 20.5664 13.5352 20.3906L13.5703 20.2324L13.5703 20.0039Q13.5703 19.8105 12.8848 19.8105L12.0059 19.8105L11.9004 19.8281L11.5488 19.8281Q9.89648 19.8281 9.73828 19.8984Q9.33398 20.0742 9.33398 21.2168ZM20.8477 18.0527L20.8477 18.5625Q20.8477 19.6523 18.8965 19.8281Q17.6836 19.9336 17.3848 20.1797Q16.4355 20.9355 16.4355 23.8711Q16.4355 24.416 17.4375 24.5566Q19.3008 24.8027 19.5381 25.0137Q19.7754 25.2246 19.7754 26.0332Q19.7754 26.8418 19.3799 27.2197Q18.9844 27.5977 17.6924 27.7383Q16.4004 27.8789 15.9609 28.3711Q15.5215 28.8633 15.0557 30.876Q14.5898 32.8887 14.4668 33.0996Q14.0625 33.8203 12.7529 33.8203Q11.4434 33.8203 11.4434 32.6777Q11.4434 32.0449 11.7158 30.5068Q11.9883 28.9688 11.9883 28.4678Q11.9883 27.9668 11.751 27.8086Q11.5137 27.6504 10.2041 27.6504Q8.89453 27.6504 8.52539 27.9404Q8.15625 28.2305 7.76074 30.208Q7.36523 32.1855 6.89941 33.0205Q6.43359 33.8555 5.56348 33.8555Q4.69336 33.8555 4.30664 33.6182Q3.91992 33.3809 3.91992 32.3965L4.06055 31.2363Q4.23633 29.7949 4.23633 29.2236Q4.23633 28.6523 4.00781 28.2832Q3.7793 27.9141 2.6543 27.457Q1.5293 27 1.5293 26.165Q1.5293 25.3301 2.23242 24.9258Q2.51367 24.7676 3.66504 24.5918Q4.81641 24.416 5.15039 24.0117Q5.90625 23.0801 5.90625 20.7598Q5.90625 20.25 5.625 20.0654Q5.34375 19.8809 4.30664 19.8018Q3.26953 19.7227 2.87402 19.5205Q2.47852 19.3184 2.47852 18.4307Q2.47852 17.543 3.18164 17.0859Q3.44531 16.9102 4.75488 16.7432Q6.06445 16.5762 6.44238 16.04Q6.82031 15.5039 7.20703 13.5088Q7.59375 11.5137 7.96289 11.1094Q8.33203 10.7051 9.59766 10.7051Q10.8633 10.7051 10.8633 11.7422Q10.8633 12.2695 10.582 14.0361Q10.3008 15.8027 10.3008 15.873Q10.3008 16.7871 11.8652 16.7871Q13.4297 16.7871 13.7988 16.4971Q14.168 16.207 14.5723 14.2207Q14.9766 12.2344 15.4072 11.417Q15.8379 10.5996 17.1035 10.5996Q18.3691 10.5996 18.3691 11.6367L17.9648 15.0996Q17.9648 15.9609 18.2285 16.2422Q18.4922 16.5234 19.6699 16.875Q20.8477 17.2266 20.8477 18.0527ZM29.1797 21.4102Q29.1797 26.3672 30.7793 28.5117Q32.6602 31.0605 35.9824 31.0605Q37.3535 31.0605 39.665 30.1465Q41.9766 29.2324 42.3105 29.2324Q43.5059 29.2324 43.5059 30.3398L43.5059 30.7266Q43.5059 31.2715 42.7588 32.1064Q42.0117 32.9414 40.5703 33.5918Q38.1621 34.6816 35.2969 34.6816L34.7344 34.6816Q32.625 34.6816 30.375 33.7324Q24.1875 31.1133 24.1875 22.1836L24.1875 21.5859Q24.1875 19.1602 24.9609 16.752Q25.7344 14.3438 27.0615 12.8584Q28.3887 11.373 30.5859 10.3887Q32.7832 9.4043 34.6816 9.4043L35.7891 9.4043Q39.9023 9.4043 41.5811 10.5293Q43.2598 11.6543 43.2598 13.3242Q43.2598 14.3965 42.8467 14.8887Q42.4336 15.3809 41.8008 15.3809Q41.168 15.3809 39.1201 14.3965Q37.0723 13.4121 36.3867 13.2539Q35.6309 13.0781 34.9102 13.0781Q33.6797 13.0781 32.5547 13.6055Q29.1797 15.2227 29.1797 21.4102ZM52.5059 34.8926L52.084 34.8926Q50.3086 34.8926 50.3086 33.7324Q50.3086 32.3789 53.666 24.2578Q54.4922 22.2715 55.9512 19.1426Q57.4102 16.0137 57.4102 15.3018Q57.4102 14.5898 56.7246 14.3438Q56.0391 14.0977 54.123 14.0977Q52.207 14.0977 50.6602 14.5811Q49.1133 15.0645 48.4102 15.0645Q46.9688 15.0645 46.9688 13.2715Q46.9688 11.4785 48.1465 10.8281Q48.9551 10.3887 51.6094 10.3887L55.0898 10.3887Q60.7676 10.3887 61.6641 10.7139Q62.5605 11.0391 62.5605 12.2871Q62.5605 13.5352 60.0293 19.1074Q57.498 24.6621 56.1357 29.1006Q54.7734 33.5391 54.7031 33.6973Q54.1406 34.8926 52.5059 34.8926ZM66.2344 31.4121Q66.2344 30.6035 66.6826 30.1729Q67.1309 29.7422 67.7021 29.7422Q68.2734 29.7422 70.1807 30.6035Q72.0879 31.4648 73.5117 31.4648Q75.5332 31.4648 76.7109 30.0059Q77.5723 28.9336 77.5723 26.8418Q77.5723 26.0508 77.1855 25.1016Q76.166 22.623 71.9824 22.623L71.4551 22.6582L70.9102 22.7109Q70.2598 22.7637 69.8555 22.7637Q68.3086 22.7637 67.7637 21.999Q67.2188 21.2344 67.2188 19.2129Q67.2188 15.1348 67.834 12.4805Q68.0449 11.5488 68.3789 11.1797Q69.0996 10.3711 73.5645 10.3711Q74.7246 10.3711 75.8496 10.3359L76.9746 10.2832Q78.4688 10.2129 78.6621 10.2129L79.207 10.2305L79.752 10.2305Q81.1055 10.2305 81.1055 11.1621Q81.1055 13.0957 79.998 13.6934Q79.4004 14.0098 75.9727 14.0098Q72.5449 14.0098 71.9824 14.3262Q70.9102 14.9238 70.9102 17.4902Q70.9102 19.1602 71.8242 19.1602L72.8965 19.0898Q73.459 19.0547 74.5928 19.0547Q75.7266 19.0547 77.2031 19.6172Q80.1738 20.7246 81.3516 23.2207Q82.1074 24.8203 82.1074 26.6836Q82.1074 30.5332 79.6641 32.748Q77.2207 34.9453 73.3359 34.9453L72.7559 34.9453Q70.0312 34.9453 68.1328 33.8379Q66.2344 32.7305 66.2344 31.4121ZM86.5898 14.7656Q86.5898 13.9043 88.0488 12.9727Q92.1973 10.3359 93.6123 10.3359Q95.0273 10.3359 95.2383 11.6895Q95.2734 11.9004 95.2734 19.4766Q95.2734 27.0527 95.3262 27.3516Q95.5371 28.5117 96.3809 29.707Q97.2246 30.8672 97.2246 32.0625Q97.2246 34.3828 93.5859 34.3828L92.4785 34.3828Q90.5977 34.3828 89.3145 33.416Q88.6289 32.9062 88.6289 31.79Q88.6289 30.6738 89.4375 29.7422Q90.2461 28.8105 90.5273 27.8877Q90.8086 26.9648 90.8086 22.4385Q90.8086 17.9121 90.2988 16.9805Q89.9824 16.418 88.2861 16.1104Q86.5898 15.8027 86.5898 14.7656ZM105.961 25.5586L107.314 25.5586L107.455 25.541L108.545 25.541Q111.498 25.541 111.674 25.2773Q111.85 24.9961 111.85 22.3594L111.85 18.7559L111.867 18.6152L111.867 17.9473L111.885 17.4023L111.885 16.6113Q111.885 16.3125 111.806 16.3125Q111.727 16.3125 110.241 18.4658Q108.756 20.6191 108.422 21.0586Q108.088 21.498 106.743 23.4404Q105.398 25.3828 105.398 25.418L105.398 25.4883Q105.398 25.5586 105.961 25.5586ZM118.547 26.9473Q118.547 28.2832 117.58 29.25Q116.631 30.1992 116.631 30.8145L116.666 32.2207Q116.666 33.7324 115.822 34.541Q115.33 35.0156 113.774 35.0156Q112.219 35.0156 111.656 34.3828Q110.848 33.4688 110.848 30.7617Q110.848 29.8125 108.598 29.0918Q107.508 28.7402 105.17 28.7402Q102.832 28.7402 102.322 28.459Q101.514 28.0195 101.514 27L101.514 26.7012Q101.514 25.6465 102.832 23.7129Q106.594 18.2285 110.883 12.6562Q111.744 11.5312 112.412 11.1006Q113.08 10.6699 114.258 10.6699L114.609 10.6699Q115.664 10.6699 115.945 11.8125Q116.033 12.1816 116.033 17.332Q116.033 22.4824 116.262 23.2646Q116.49 24.0469 117.457 25.4531Q117.545 25.5762 118.046 26.0244Q118.547 26.4727 118.547 26.9473ZM127.688 34.8926L127.266 34.8926Q125.49 34.8926 125.49 33.7324Q125.49 32.3789 128.848 24.2578Q129.674 22.2715 131.133 19.1426Q132.592 16.0137 132.592 15.3018Q132.592 14.5898 131.906 14.3438Q131.221 14.0977 129.305 14.0977Q127.389 14.0977 125.842 14.5811Q124.295 15.0645 123.592 15.0645Q122.15 15.0645 122.15 13.2715Q122.15 11.4785 123.328 10.8281Q124.137 10.3887 126.791 10.3887L130.271 10.3887Q135.949 10.3887 136.846 10.7139Q137.742 11.0391 137.742 12.2871Q137.742 13.5352 135.211 19.1074Q132.68 24.6621 131.317 29.1006Q129.955 33.5391 129.885 33.6973Q129.322 34.8926 127.688 34.8926Z" transform="translate(30.329 0)" style="fill:#FFFFFF;" />
              </g>
            </g>
          </g>
        </g>
        <g id="Green" opacity="1" clip-path="url(#clip_path_6)" transform="translate(400 0)">
          <g>
            <use xlink:href="#path_4" style="fill:#9BD85F;fill-rule:evenodd;mix-blend-mode:normal;" />
            <g>
              <g clip-path="url(#clip_path_8)" style="mix-blend-mode:normal;" transform="translate(0.429 181.039)">
                <path d="M9.33398 21.2168Q8.8418 23.6777 8.8418 24.0117L8.80664 24.1699L8.80664 24.3984Q8.80664 24.5742 9.07031 24.5742L12.252 24.5742Q12.9199 24.5742 12.9199 23.8887L13.0078 23.4492Q13.2012 22.4824 13.2012 22.3066L13.3242 21.6211Q13.5352 20.5664 13.5352 20.3906L13.5703 20.2324L13.5703 20.0039Q13.5703 19.8105 12.8848 19.8105L12.0059 19.8105L11.9004 19.8281L11.5488 19.8281Q9.89648 19.8281 9.73828 19.8984Q9.33398 20.0742 9.33398 21.2168ZM20.8477 18.0527L20.8477 18.5625Q20.8477 19.6523 18.8965 19.8281Q17.6836 19.9336 17.3848 20.1797Q16.4355 20.9355 16.4355 23.8711Q16.4355 24.416 17.4375 24.5566Q19.3008 24.8027 19.5381 25.0137Q19.7754 25.2246 19.7754 26.0332Q19.7754 26.8418 19.3799 27.2197Q18.9844 27.5977 17.6924 27.7383Q16.4004 27.8789 15.9609 28.3711Q15.5215 28.8633 15.0557 30.876Q14.5898 32.8887 14.4668 33.0996Q14.0625 33.8203 12.7529 33.8203Q11.4434 33.8203 11.4434 32.6777Q11.4434 32.0449 11.7158 30.5068Q11.9883 28.9688 11.9883 28.4678Q11.9883 27.9668 11.751 27.8086Q11.5137 27.6504 10.2041 27.6504Q8.89453 27.6504 8.52539 27.9404Q8.15625 28.2305 7.76074 30.208Q7.36523 32.1855 6.89941 33.0205Q6.43359 33.8555 5.56348 33.8555Q4.69336 33.8555 4.30664 33.6182Q3.91992 33.3809 3.91992 32.3965L4.06055 31.2363Q4.23633 29.7949 4.23633 29.2236Q4.23633 28.6523 4.00781 28.2832Q3.7793 27.9141 2.6543 27.457Q1.5293 27 1.5293 26.165Q1.5293 25.3301 2.23242 24.9258Q2.51367 24.7676 3.66504 24.5918Q4.81641 24.416 5.15039 24.0117Q5.90625 23.0801 5.90625 20.7598Q5.90625 20.25 5.625 20.0654Q5.34375 19.8809 4.30664 19.8018Q3.26953 19.7227 2.87402 19.5205Q2.47852 19.3184 2.47852 18.4307Q2.47852 17.543 3.18164 17.0859Q3.44531 16.9102 4.75488 16.7432Q6.06445 16.5762 6.44238 16.04Q6.82031 15.5039 7.20703 13.5088Q7.59375 11.5137 7.96289 11.1094Q8.33203 10.7051 9.59766 10.7051Q10.8633 10.7051 10.8633 11.7422Q10.8633 12.2695 10.582 14.0361Q10.3008 15.8027 10.3008 15.873Q10.3008 16.7871 11.8652 16.7871Q13.4297 16.7871 13.7988 16.4971Q14.168 16.207 14.5723 14.2207Q14.9766 12.2344 15.4072 11.417Q15.8379 10.5996 17.1035 10.5996Q18.3691 10.5996 18.3691 11.6367L17.9648 15.0996Q17.9648 15.9609 18.2285 16.2422Q18.4922 16.5234 19.6699 16.875Q20.8477 17.2266 20.8477 18.0527ZM28.459 18.0352L28.459 18.3516Q28.459 20.4609 29.5752 21.6914Q30.6914 22.9219 32.3438 22.9219L32.502 22.9219L32.6426 22.9043Q34.3477 22.9043 35.3936 21.9463Q36.4395 20.9883 36.4395 19.2305L36.4395 18.7734L36.4219 18.6152L36.4219 18.3164Q36.3867 18 36.3867 17.8594Q36.3867 16.3301 35.3057 14.8887Q34.2246 13.4473 32.748 13.4473L31.9922 13.4473Q30.4277 13.4473 29.4434 14.7568Q28.459 16.0664 28.459 18.0352ZM33.5566 25.6289Q33.2578 25.6289 32.7217 25.6992Q32.1855 25.7695 31.0078 25.7695Q29.8477 25.7695 28.4766 25.1719Q24.1875 23.3086 24.1699 18.1758Q24.1699 14.5195 26.5078 12.3574Q27.5801 11.373 29.127 10.8457Q30.6738 10.3184 32.2559 10.3184L32.7305 10.3184Q36.4922 10.3184 38.8301 12.8848Q39.9023 14.0625 40.4561 15.9434Q41.0098 17.8242 41.0098 19.7051L41.0098 21.1641Q41.0098 23.8887 40.2363 26.5869Q39.4629 29.2852 38.1621 30.9023Q36.8613 32.5195 34.4971 33.6709Q32.1328 34.8223 29.707 34.8223L29.3203 34.8223Q27.8789 34.8223 26.9824 34.374Q26.0859 33.9258 26.0859 33.0732Q26.0859 32.2207 27.1582 31.7637Q27.2812 31.7109 29.5225 31.377Q31.7637 31.043 32.9766 30.2607Q34.1895 29.4785 34.7783 28.4678Q35.3672 27.457 35.3672 26.666Q35.3672 25.6289 33.5566 25.6289ZM50.5195 14.625L50.5195 17.9473Q50.5195 19.2129 50.6953 19.5645Q50.8711 19.916 51.6094 19.916L53.332 19.916L53.4727 19.8984L54.0176 19.8809L54.7031 19.8281Q56.0566 19.8281 56.9795 18.8086Q57.9023 17.7891 57.9023 16.5234L57.9023 15.9434Q57.9023 14.6074 56.9707 13.6758Q56.0391 12.7441 54.5273 12.7441Q54.2461 12.709 54.1055 12.709L53.4199 12.6738L52.3301 12.6738Q51.0645 12.6738 50.792 12.9814Q50.5195 13.2891 50.5195 14.625ZM50.502 29.0566Q50.502 30.6562 50.915 30.9463Q51.3281 31.2363 53.1387 31.2363L54.4043 31.2363Q56.7773 31.2363 57.876 30.1377Q58.9746 29.0391 58.9746 27.2637L58.9746 26.9297Q58.9395 26.6133 58.9395 26.4551Q58.9395 25.1191 57.7881 24.0732Q56.6367 23.0273 54.9492 23.0273Q54.6328 22.9922 54.4746 22.9922L53.7012 22.957L52.6289 22.957Q50.9941 22.957 50.7568 23.3262Q50.5195 23.6953 50.5195 25.5234L50.5195 27.5625L50.502 28.1602L50.502 29.0566ZM53.3848 34.4531L52.9453 34.4531L52.4883 34.4355L51.6094 34.4355L50.3262 34.418Q46.7578 34.418 46.0898 34.2773Q45 34.0488 45 33.2578Q45 32.8184 45.3867 31.4648Q45.7734 30.1113 45.7734 28.0195L45.8086 25.875L45.8086 16.3477Q45.8086 14.5547 45.5801 13.4824L44.9473 11.127Q44.9473 10.1074 45.5889 9.85254Q46.2305 9.59766 48.1113 9.59766L51.9961 9.50977L53.3145 9.49219L53.7539 9.49219Q60.4512 9.49219 62.1035 13.2715Q62.543 14.2734 62.543 15.7764Q62.543 17.2793 61.9717 18.3428Q61.4004 19.4062 61.084 19.7051Q60.7676 20.0039 60.1348 20.5312Q59.502 21.0586 59.502 21.0938Q59.5195 21.1289 60.7148 21.8848Q63.7559 23.7832 63.7559 27.1406Q63.7383 34.4531 53.3848 34.4531ZM83.127 22.7109L83.127 21.2695Q83.127 19.3711 82.6348 17.6484Q82.1602 15.9258 81.3516 14.9414Q79.5059 12.6914 76.0957 12.6914L75.5684 12.6914L75.3223 12.709Q73.7754 12.709 73.3887 13.0166Q73.002 13.3242 72.9844 14.1768Q72.9668 15.0293 72.9668 15.2754L72.9492 15.7852L72.9492 17.6133L72.9668 18.1406L72.9668 23.6426L72.9492 24.416L72.9492 25.9805L72.9316 27.0176L72.9316 28.5469L72.9668 29.0566Q72.9844 29.3203 72.9844 29.5488Q72.9844 30.6211 73.415 30.9199Q73.8457 31.2188 75.2695 31.2188L76.3066 31.2188Q79.5938 31.2188 81.4746 28.793Q82.125 27.9492 82.626 26.2529Q83.127 24.5566 83.127 22.7109ZM76.377 9.49219Q78.9961 9.49219 81.3164 10.3008Q85.8164 11.8477 87.3457 16.3477Q88.1719 18.7734 88.1719 21.3398L88.1719 22.2539Q88.1719 24.9258 87.3457 27.3516Q85.7285 32.0977 81.123 33.6445Q78.8555 34.418 76.166 34.418L73.582 34.418L70.6816 34.3477Q68.8535 34.3477 68.1943 34.1543Q67.5352 33.9609 67.5352 33.2842Q67.5352 32.6074 67.9043 31.6143Q68.2734 30.6211 68.335 29.6631Q68.3965 28.7051 68.3965 21.0938L68.3965 14.4668Q68.3086 13.4473 67.9043 12.3311Q67.5 11.2148 67.5 10.6348Q67.5 10.0547 68.1064 9.83496Q68.7129 9.61523 70.4883 9.61523L74.1973 9.49219L76.377 9.49219ZM103.588 16.2949L103.588 15.9258Q103.588 14.6426 102.718 13.667Q101.848 12.6914 100.354 12.6914L99.7383 12.6914Q98.5605 12.6914 97.6641 13.4824Q96.7676 14.2734 96.7676 15.5215L96.7676 16.1191Q96.7676 17.4551 97.9277 18.6152Q99.0879 19.7754 100.564 19.7754L100.898 19.7754Q101.883 19.7754 102.955 18.3867Q103.588 17.5781 103.588 16.2949ZM104.15 28.3535L104.15 27.7734Q104.15 26.0156 102.612 24.6182Q101.074 23.2207 99.457 23.2207L99.0527 23.2207Q97.9453 23.2207 96.9258 24.4688Q95.9062 25.7168 95.9062 27.0352L95.9062 27.7559Q95.9062 29.707 97.2246 30.7881Q98.543 31.8691 100.318 31.8691L100.459 31.8516Q101.971 31.8516 103.061 30.8672Q104.15 29.8828 104.15 28.3535ZM107.543 15.8906Q107.543 17.2617 107.033 18.2725Q106.523 19.2832 105.645 20.3379Q104.766 21.3926 104.766 21.4629Q104.783 21.5508 105.838 22.4648Q108.404 24.6973 108.404 27.9404Q108.404 31.1836 105.873 33.1699Q104.854 33.9785 103.298 34.4707Q101.742 34.9629 100.107 34.9629L99.6855 34.9629Q96.293 34.9629 93.9551 33.1348Q92.8652 32.291 92.25 31.0518Q91.6348 29.8125 91.6348 28.582L91.6348 27.791Q91.6348 26.1387 92.4609 24.7412Q93.2871 23.3438 94.6055 22.3594Q95.2031 21.9023 95.2031 21.7617Q95.1855 21.6211 94.377 20.7422Q92.4785 18.6855 92.4785 15.8027Q92.4785 14.6953 93.0146 13.5703Q93.5508 12.4453 94.6055 11.584Q96.75 9.84375 99.9844 9.84375L100.406 9.84375Q101.936 9.84375 103.368 10.3447Q104.801 10.8457 105.697 11.6543Q107.543 13.3242 107.543 15.8906ZM112.201 31.4121Q112.201 30.6035 112.649 30.1729Q113.098 29.7422 113.669 29.7422Q114.24 29.7422 116.147 30.6035Q118.055 31.4648 119.479 31.4648Q121.5 31.4648 122.678 30.0059Q123.539 28.9336 123.539 26.8418Q123.539 26.0508 123.152 25.1016Q122.133 22.623 117.949 22.623L117.422 22.6582L116.877 22.7109Q116.227 22.7637 115.822 22.7637Q114.275 22.7637 113.73 21.999Q113.186 21.2344 113.186 19.2129Q113.186 15.1348 113.801 12.4805Q114.012 11.5488 114.346 11.1797Q115.066 10.3711 119.531 10.3711Q120.691 10.3711 121.816 10.3359L122.941 10.2832Q124.436 10.2129 124.629 10.2129L125.174 10.2305L125.719 10.2305Q127.072 10.2305 127.072 11.1621Q127.072 13.0957 125.965 13.6934Q125.367 14.0098 121.939 14.0098Q118.512 14.0098 117.949 14.3262Q116.877 14.9238 116.877 17.4902Q116.877 19.1602 117.791 19.1602L118.863 19.0898Q119.426 19.0547 120.56 19.0547Q121.693 19.0547 123.17 19.6172Q126.141 20.7246 127.318 23.2207Q128.074 24.8203 128.074 26.6836Q128.074 30.5332 125.631 32.748Q123.188 34.9453 119.303 34.9453L118.723 34.9453Q115.998 34.9453 114.1 33.8379Q112.201 32.7305 112.201 31.4121ZM135.686 34.2246L135.211 34.2246Q133.822 34.2246 133.207 33.627Q132.592 33.0293 132.592 31.7285Q132.592 31.4473 132.987 30.0938Q133.383 28.7402 133.383 27.2285L133.418 24.6445L133.418 23.0449L133.471 18.7559L133.471 16.0664Q133.471 14.7656 133.093 13.1572Q132.715 11.5488 132.715 11.0918Q132.715 10.2656 134.121 10.0547Q137.268 9.59766 144.738 9.59766L145.828 9.59766Q147.639 9.59766 148.228 9.97559Q148.816 10.3535 148.816 11.4434L148.816 11.9355Q148.816 12.9551 148.342 13.3506Q147.867 13.7461 147.252 13.7461Q146.637 13.7461 144.967 13.3682Q143.297 12.9902 141.486 12.9902Q139.676 12.9902 138.981 13.6143Q138.287 14.2383 138.287 16.4971Q138.287 18.7559 138.744 19.3447Q139.201 19.9336 140.73 19.9336L144.229 19.6348Q146.338 19.6348 146.338 22.1484Q146.338 23.0977 145.828 23.458Q145.318 23.8184 144.105 23.8184L143.701 23.7832Q143.297 23.748 142.875 23.748Q140.15 23.748 139.271 24.7148Q138.393 25.6816 138.393 29.4609L138.516 31.7988Q138.516 34.2246 135.686 34.2246Z" transform="translate(24.889 0)" style="fill:#FFFFFF;" />
              </g>
            </g>
          </g>
        </g>
        <g id="Blue" opacity="1" clip-path="url(#clip_path_6)" transform="translate(800 0)">
          <g>
            <use xlink:href="#path_4" style="fill:#94D3E6;fill-rule:evenodd;mix-blend-mode:normal;" />
            <g>
              <g clip-path="url(#clip_path_8)" style="mix-blend-mode:normal;" transform="translate(-0.286 181.039)">
                <path d="M9.33398 21.2168Q8.8418 23.6777 8.8418 24.0117L8.80664 24.1699L8.80664 24.3984Q8.80664 24.5742 9.07031 24.5742L12.252 24.5742Q12.9199 24.5742 12.9199 23.8887L13.0078 23.4492Q13.2012 22.4824 13.2012 22.3066L13.3242 21.6211Q13.5352 20.5664 13.5352 20.3906L13.5703 20.2324L13.5703 20.0039Q13.5703 19.8105 12.8848 19.8105L12.0059 19.8105L11.9004 19.8281L11.5488 19.8281Q9.89648 19.8281 9.73828 19.8984Q9.33398 20.0742 9.33398 21.2168ZM20.8477 18.0527L20.8477 18.5625Q20.8477 19.6523 18.8965 19.8281Q17.6836 19.9336 17.3848 20.1797Q16.4355 20.9355 16.4355 23.8711Q16.4355 24.416 17.4375 24.5566Q19.3008 24.8027 19.5381 25.0137Q19.7754 25.2246 19.7754 26.0332Q19.7754 26.8418 19.3799 27.2197Q18.9844 27.5977 17.6924 27.7383Q16.4004 27.8789 15.9609 28.3711Q15.5215 28.8633 15.0557 30.876Q14.5898 32.8887 14.4668 33.0996Q14.0625 33.8203 12.7529 33.8203Q11.4434 33.8203 11.4434 32.6777Q11.4434 32.0449 11.7158 30.5068Q11.9883 28.9688 11.9883 28.4678Q11.9883 27.9668 11.751 27.8086Q11.5137 27.6504 10.2041 27.6504Q8.89453 27.6504 8.52539 27.9404Q8.15625 28.2305 7.76074 30.208Q7.36523 32.1855 6.89941 33.0205Q6.43359 33.8555 5.56348 33.8555Q4.69336 33.8555 4.30664 33.6182Q3.91992 33.3809 3.91992 32.3965L4.06055 31.2363Q4.23633 29.7949 4.23633 29.2236Q4.23633 28.6523 4.00781 28.2832Q3.7793 27.9141 2.6543 27.457Q1.5293 27 1.5293 26.165Q1.5293 25.3301 2.23242 24.9258Q2.51367 24.7676 3.66504 24.5918Q4.81641 24.416 5.15039 24.0117Q5.90625 23.0801 5.90625 20.7598Q5.90625 20.25 5.625 20.0654Q5.34375 19.8809 4.30664 19.8018Q3.26953 19.7227 2.87402 19.5205Q2.47852 19.3184 2.47852 18.4307Q2.47852 17.543 3.18164 17.0859Q3.44531 16.9102 4.75488 16.7432Q6.06445 16.5762 6.44238 16.04Q6.82031 15.5039 7.20703 13.5088Q7.59375 11.5137 7.96289 11.1094Q8.33203 10.7051 9.59766 10.7051Q10.8633 10.7051 10.8633 11.7422Q10.8633 12.2695 10.582 14.0361Q10.3008 15.8027 10.3008 15.873Q10.3008 16.7871 11.8652 16.7871Q13.4297 16.7871 13.7988 16.4971Q14.168 16.207 14.5723 14.2207Q14.9766 12.2344 15.4072 11.417Q15.8379 10.5996 17.1035 10.5996Q18.3691 10.5996 18.3691 11.6367L17.9648 15.0996Q17.9648 15.9609 18.2285 16.2422Q18.4922 16.5234 19.6699 16.875Q20.8477 17.2266 20.8477 18.0527ZM28.459 18.0352L28.459 18.3516Q28.459 20.4609 29.5752 21.6914Q30.6914 22.9219 32.3438 22.9219L32.502 22.9219L32.6426 22.9043Q34.3477 22.9043 35.3936 21.9463Q36.4395 20.9883 36.4395 19.2305L36.4395 18.7734L36.4219 18.6152L36.4219 18.3164Q36.3867 18 36.3867 17.8594Q36.3867 16.3301 35.3057 14.8887Q34.2246 13.4473 32.748 13.4473L31.9922 13.4473Q30.4277 13.4473 29.4434 14.7568Q28.459 16.0664 28.459 18.0352ZM33.5566 25.6289Q33.2578 25.6289 32.7217 25.6992Q32.1855 25.7695 31.0078 25.7695Q29.8477 25.7695 28.4766 25.1719Q24.1875 23.3086 24.1699 18.1758Q24.1699 14.5195 26.5078 12.3574Q27.5801 11.373 29.127 10.8457Q30.6738 10.3184 32.2559 10.3184L32.7305 10.3184Q36.4922 10.3184 38.8301 12.8848Q39.9023 14.0625 40.4561 15.9434Q41.0098 17.8242 41.0098 19.7051L41.0098 21.1641Q41.0098 23.8887 40.2363 26.5869Q39.4629 29.2852 38.1621 30.9023Q36.8613 32.5195 34.4971 33.6709Q32.1328 34.8223 29.707 34.8223L29.3203 34.8223Q27.8789 34.8223 26.9824 34.374Q26.0859 33.9258 26.0859 33.0732Q26.0859 32.2207 27.1582 31.7637Q27.2812 31.7109 29.5225 31.377Q31.7637 31.043 32.9766 30.2607Q34.1895 29.4785 34.7783 28.4678Q35.3672 27.457 35.3672 26.666Q35.3672 25.6289 33.5566 25.6289ZM48.6035 25.5586L49.957 25.5586L50.0977 25.541L51.1875 25.541Q54.1406 25.541 54.3164 25.2773Q54.4922 24.9961 54.4922 22.3594L54.4922 18.7559L54.5098 18.6152L54.5098 17.9473L54.5273 17.4023L54.5273 16.6113Q54.5273 16.3125 54.4482 16.3125Q54.3691 16.3125 52.8838 18.4658Q51.3984 20.6191 51.0645 21.0586Q50.7305 21.498 49.3857 23.4404Q48.041 25.3828 48.041 25.418L48.041 25.4883Q48.041 25.5586 48.6035 25.5586ZM61.1895 26.9473Q61.1895 28.2832 60.2227 29.25Q59.2734 30.1992 59.2734 30.8145L59.3086 32.2207Q59.3086 33.7324 58.4648 34.541Q57.9727 35.0156 56.417 35.0156Q54.8613 35.0156 54.2988 34.3828Q53.4902 33.4688 53.4902 30.7617Q53.4902 29.8125 51.2402 29.0918Q50.1504 28.7402 47.8125 28.7402Q45.4746 28.7402 44.9648 28.459Q44.1562 28.0195 44.1562 27L44.1562 26.7012Q44.1562 25.6465 45.4746 23.7129Q49.2363 18.2285 53.5254 12.6562Q54.3867 11.5312 55.0547 11.1006Q55.7227 10.6699 56.9004 10.6699L57.252 10.6699Q58.3066 10.6699 58.5879 11.8125Q58.6758 12.1816 58.6758 17.332Q58.6758 22.4824 58.9043 23.2646Q59.1328 24.0469 60.0996 25.4531Q60.1875 25.5762 60.6885 26.0244Q61.1895 26.4727 61.1895 26.9473ZM81.0527 22.7109L81.0527 21.2695Q81.0527 19.3711 80.5605 17.6484Q80.0859 15.9258 79.2773 14.9414Q77.4316 12.6914 74.0215 12.6914L73.4941 12.6914L73.248 12.709Q71.7012 12.709 71.3145 13.0166Q70.9277 13.3242 70.9102 14.1768Q70.8926 15.0293 70.8926 15.2754L70.875 15.7852L70.875 17.6133L70.8926 18.1406L70.8926 23.6426L70.875 24.416L70.875 25.9805L70.8574 27.0176L70.8574 28.5469L70.8926 29.0566Q70.9102 29.3203 70.9102 29.5488Q70.9102 30.6211 71.3408 30.9199Q71.7715 31.2188 73.1953 31.2188L74.2324 31.2188Q77.5195 31.2188 79.4004 28.793Q80.0508 27.9492 80.5518 26.2529Q81.0527 24.5566 81.0527 22.7109ZM74.3027 9.49219Q76.9219 9.49219 79.2422 10.3008Q83.7422 11.8477 85.2715 16.3477Q86.0977 18.7734 86.0977 21.3398L86.0977 22.2539Q86.0977 24.9258 85.2715 27.3516Q83.6543 32.0977 79.0488 33.6445Q76.7812 34.418 74.0918 34.418L71.5078 34.418L68.6074 34.3477Q66.7793 34.3477 66.1201 34.1543Q65.4609 33.9609 65.4609 33.2842Q65.4609 32.6074 65.8301 31.6143Q66.1992 30.6211 66.2607 29.6631Q66.3223 28.7051 66.3223 21.0938L66.3223 14.4668Q66.2344 13.4473 65.8301 12.3311Q65.4258 11.2148 65.4258 10.6348Q65.4258 10.0547 66.0322 9.83496Q66.6387 9.61523 68.4141 9.61523L72.123 9.49219L74.3027 9.49219ZM98.1211 10.2129Q104.344 10.2129 104.344 15.4512Q104.344 17.5957 102.639 19.793Q101.707 20.9883 101.707 21.0586Q101.707 21.2871 102.902 22.0781Q105.768 23.9766 105.768 27.6328Q105.768 30.7266 103.254 32.8008Q102.006 33.8379 100.345 34.4004Q98.6836 34.9629 97.084 34.9629L96.5215 34.9629Q93.8496 34.9629 91.96 33.8291Q90.0703 32.6953 90.0703 31.3242Q90.0703 30.6211 90.457 30.1816Q90.8438 29.7422 91.6963 29.7422Q92.5488 29.7422 94.2715 30.5859Q95.9941 31.4297 97.5059 31.4297Q99.0176 31.4297 100.081 30.4189Q101.145 29.4082 101.145 27.7559Q101.145 26.1035 100.02 24.9258Q98.8945 23.748 96.8027 23.4844Q95.6074 23.3086 95.3438 23.1504Q94.623 22.7285 94.623 21.7881Q94.623 20.8477 96.2139 20.2412Q97.8047 19.6348 98.6836 18.7207Q99.9844 17.3848 99.9844 15.7148Q99.9844 14.8887 99.1934 14.3438Q98.4023 13.7988 97.4355 13.7988Q96.4688 13.7988 94.7461 14.4844Q93.0234 15.1699 92.1973 15.1699Q90.7383 15.1699 90.7383 13.9219Q90.7383 12.5684 92.4258 11.5664Q94.6934 10.2129 97.541 10.2129L98.1211 10.2129ZM126.598 11.7422Q126.598 13.7285 124.77 13.7285Q124.541 13.7109 122.572 13.4648Q120.604 13.2188 118.837 13.2188Q117.07 13.2188 116.543 14.0625Q116.016 14.9062 116.016 17.877Q116.016 18.8438 116.64 19.3711Q117.264 19.8984 118.934 19.8984Q119.391 19.8984 120.498 19.6436Q121.605 19.3887 122.379 19.3887Q124.242 19.3887 124.242 21.0938Q124.242 22.3418 124.049 22.8691Q123.732 23.748 122.897 23.748Q122.062 23.748 120.938 23.5107Q119.812 23.2734 118.441 23.2734Q117.07 23.2734 116.438 23.8535Q115.805 24.4336 115.805 26.9561Q115.805 29.4785 116.446 30.252Q117.088 31.0254 118.626 31.0254Q120.164 31.0254 122.432 30.6123Q124.699 30.1992 125.341 30.1992Q125.982 30.1992 126.519 30.5859Q127.055 30.9727 127.055 32.2734Q127.055 33.5742 125.842 34.0488Q124.98 34.3828 120.182 34.3828L115.506 34.3828Q112.184 34.3828 111.199 34.0049Q110.215 33.627 110.215 32.4316Q110.215 32.0273 110.566 30.7969Q110.918 29.5664 110.936 26.0332Q110.936 22.5 111.041 19.8633L111.129 17.8945Q111.199 16.1543 111.199 15.1523Q111.199 14.1504 110.812 13.0078Q110.426 11.8828 110.426 11.25Q110.426 10.6172 110.804 10.3359Q111.182 10.0547 112.342 9.84375Q113.502 9.63281 120.27 9.63281L122.203 9.61523L122.836 9.61523Q124.945 9.61523 125.771 10.1074Q126.598 10.5996 126.598 11.7422ZM138.691 22.1484Q137.145 22.1484 136.239 23.2559Q135.334 24.3633 135.334 25.7344L135.334 26.6484Q135.334 28.7578 136.459 30.252Q137.584 31.7461 139.324 31.7461L139.623 31.7461Q141.223 31.7461 142.26 30.4717Q143.297 29.1973 143.297 27.3867L143.297 26.5957Q143.297 24.8027 142.286 23.458Q141.275 22.1133 139.588 22.1133L139.131 22.1133Q138.85 22.1484 138.691 22.1484ZM147.568 26.5781L147.568 27.0352Q147.568 30.7793 145.107 32.9414Q143.965 33.9434 142.277 34.4355Q140.625 34.9277 138.902 34.9277Q137.18 34.9102 135.527 34.1367Q132.188 32.5547 131.291 28.7754Q130.834 26.9121 130.834 24.6621L130.834 23.7129Q130.852 21.0938 131.52 18.5977Q132.873 13.5879 137.145 11.6016Q139.746 10.3887 142.506 10.3887Q143.965 10.3887 144.782 10.8721Q145.6 11.3555 145.6 12.2871Q145.6 13.2188 144.51 13.623Q144.281 13.7109 142.066 13.9922Q138.094 14.502 136.688 16.998Q136.266 17.7539 136.266 18.3779Q136.266 19.002 136.714 19.2041Q137.162 19.4062 138.428 19.4062L139.201 19.3711Q140.01 19.3359 140.915 19.3359Q141.82 19.3359 143.332 19.8984Q147.568 21.5156 147.568 26.543L147.568 26.5781Z" transform="translate(25.354 0)" style="fill:#FFFFFF;" />
              </g>
            </g>
          </g>
        </g>
        <g id="Yellow" opacity="1" clip-path="url(#clip_path_6)" transform="translate(600 0)">
          <g>
            <use xlink:href="#path_4" style="fill:#D99E64;fill-rule:evenodd;mix-blend-mode:normal;" />
            <g>
              <g clip-path="url(#clip_path_8)" style="mix-blend-mode:normal;" transform="translate(-0.429 181.039)">
                <path d="M9.33398 21.2168Q8.8418 23.6777 8.8418 24.0117L8.80664 24.1699L8.80664 24.3984Q8.80664 24.5742 9.07031 24.5742L12.252 24.5742Q12.9199 24.5742 12.9199 23.8887L13.0078 23.4492Q13.2012 22.4824 13.2012 22.3066L13.3242 21.6211Q13.5352 20.5664 13.5352 20.3906L13.5703 20.2324L13.5703 20.0039Q13.5703 19.8105 12.8848 19.8105L12.0059 19.8105L11.9004 19.8281L11.5488 19.8281Q9.89648 19.8281 9.73828 19.8984Q9.33398 20.0742 9.33398 21.2168ZM20.8477 18.0527L20.8477 18.5625Q20.8477 19.6523 18.8965 19.8281Q17.6836 19.9336 17.3848 20.1797Q16.4355 20.9355 16.4355 23.8711Q16.4355 24.416 17.4375 24.5566Q19.3008 24.8027 19.5381 25.0137Q19.7754 25.2246 19.7754 26.0332Q19.7754 26.8418 19.3799 27.2197Q18.9844 27.5977 17.6924 27.7383Q16.4004 27.8789 15.9609 28.3711Q15.5215 28.8633 15.0557 30.876Q14.5898 32.8887 14.4668 33.0996Q14.0625 33.8203 12.7529 33.8203Q11.4434 33.8203 11.4434 32.6777Q11.4434 32.0449 11.7158 30.5068Q11.9883 28.9688 11.9883 28.4678Q11.9883 27.9668 11.751 27.8086Q11.5137 27.6504 10.2041 27.6504Q8.89453 27.6504 8.52539 27.9404Q8.15625 28.2305 7.76074 30.208Q7.36523 32.1855 6.89941 33.0205Q6.43359 33.8555 5.56348 33.8555Q4.69336 33.8555 4.30664 33.6182Q3.91992 33.3809 3.91992 32.3965L4.06055 31.2363Q4.23633 29.7949 4.23633 29.2236Q4.23633 28.6523 4.00781 28.2832Q3.7793 27.9141 2.6543 27.457Q1.5293 27 1.5293 26.165Q1.5293 25.3301 2.23242 24.9258Q2.51367 24.7676 3.66504 24.5918Q4.81641 24.416 5.15039 24.0117Q5.90625 23.0801 5.90625 20.7598Q5.90625 20.25 5.625 20.0654Q5.34375 19.8809 4.30664 19.8018Q3.26953 19.7227 2.87402 19.5205Q2.47852 19.3184 2.47852 18.4307Q2.47852 17.543 3.18164 17.0859Q3.44531 16.9102 4.75488 16.7432Q6.06445 16.5762 6.44238 16.04Q6.82031 15.5039 7.20703 13.5088Q7.59375 11.5137 7.96289 11.1094Q8.33203 10.7051 9.59766 10.7051Q10.8633 10.7051 10.8633 11.7422Q10.8633 12.2695 10.582 14.0361Q10.3008 15.8027 10.3008 15.873Q10.3008 16.7871 11.8652 16.7871Q13.4297 16.7871 13.7988 16.4971Q14.168 16.207 14.5723 14.2207Q14.9766 12.2344 15.4072 11.417Q15.8379 10.5996 17.1035 10.5996Q18.3691 10.5996 18.3691 11.6367L17.9648 15.0996Q17.9648 15.9609 18.2285 16.2422Q18.4922 16.5234 19.6699 16.875Q20.8477 17.2266 20.8477 18.0527ZM40.2363 22.7109L40.2363 21.2695Q40.2363 19.3711 39.7441 17.6484Q39.2695 15.9258 38.4609 14.9414Q36.6152 12.6914 33.2051 12.6914L32.6777 12.6914L32.4316 12.709Q30.8848 12.709 30.498 13.0166Q30.1113 13.3242 30.0938 14.1768Q30.0762 15.0293 30.0762 15.2754L30.0586 15.7852L30.0586 17.6133L30.0762 18.1406L30.0762 23.6426L30.0586 24.416L30.0586 25.9805L30.041 27.0176L30.041 28.5469L30.0762 29.0566Q30.0938 29.3203 30.0938 29.5488Q30.0938 30.6211 30.5244 30.9199Q30.9551 31.2188 32.3789 31.2188L33.416 31.2188Q36.7031 31.2188 38.584 28.793Q39.2344 27.9492 39.7354 26.2529Q40.2363 24.5566 40.2363 22.7109ZM33.4863 9.49219Q36.1055 9.49219 38.4258 10.3008Q42.9258 11.8477 44.4551 16.3477Q45.2812 18.7734 45.2812 21.3398L45.2812 22.2539Q45.2812 24.9258 44.4551 27.3516Q42.8379 32.0977 38.2324 33.6445Q35.9648 34.418 33.2754 34.418L30.6914 34.418L27.791 34.3477Q25.9629 34.3477 25.3037 34.1543Q24.6445 33.9609 24.6445 33.2842Q24.6445 32.6074 25.0137 31.6143Q25.3828 30.6211 25.4443 29.6631Q25.5059 28.7051 25.5059 21.0938L25.5059 14.4668Q25.418 13.4473 25.0137 12.3311Q24.6094 11.2148 24.6094 10.6348Q24.6094 10.0547 25.2158 9.83496Q25.8223 9.61523 27.5977 9.61523L31.3066 9.49219L33.4863 9.49219ZM53.1211 18.0352L53.1211 18.3516Q53.1211 20.4609 54.2373 21.6914Q55.3535 22.9219 57.0059 22.9219L57.1641 22.9219L57.3047 22.9043Q59.0098 22.9043 60.0557 21.9463Q61.1016 20.9883 61.1016 19.2305L61.1016 18.7734L61.084 18.6152L61.084 18.3164Q61.0488 18 61.0488 17.8594Q61.0488 16.3301 59.9678 14.8887Q58.8867 13.4473 57.4102 13.4473L56.6543 13.4473Q55.0898 13.4473 54.1055 14.7568Q53.1211 16.0664 53.1211 18.0352ZM58.2188 25.6289Q57.9199 25.6289 57.3838 25.6992Q56.8477 25.7695 55.6699 25.7695Q54.5098 25.7695 53.1387 25.1719Q48.8496 23.3086 48.832 18.1758Q48.832 14.5195 51.1699 12.3574Q52.2422 11.373 53.7891 10.8457Q55.3359 10.3184 56.918 10.3184L57.3926 10.3184Q61.1543 10.3184 63.4922 12.8848Q64.5645 14.0625 65.1182 15.9434Q65.6719 17.8242 65.6719 19.7051L65.6719 21.1641Q65.6719 23.8887 64.8984 26.5869Q64.125 29.2852 62.8242 30.9023Q61.5234 32.5195 59.1592 33.6709Q56.7949 34.8223 54.3691 34.8223L53.9824 34.8223Q52.541 34.8223 51.6445 34.374Q50.748 33.9258 50.748 33.0732Q50.748 32.2207 51.8203 31.7637Q51.9434 31.7109 54.1846 31.377Q56.4258 31.043 57.6387 30.2607Q58.8516 29.4785 59.4404 28.4678Q60.0293 27.457 60.0293 26.666Q60.0293 25.6289 58.2188 25.6289ZM73.4766 18.0352L73.4766 18.3516Q73.4766 20.4609 74.5928 21.6914Q75.709 22.9219 77.3613 22.9219L77.5195 22.9219L77.6602 22.9043Q79.3652 22.9043 80.4111 21.9463Q81.457 20.9883 81.457 19.2305L81.457 18.7734L81.4395 18.6152L81.4395 18.3164Q81.4043 18 81.4043 17.8594Q81.4043 16.3301 80.3232 14.8887Q79.2422 13.4473 77.7656 13.4473L77.0098 13.4473Q75.4453 13.4473 74.4609 14.7568Q73.4766 16.0664 73.4766 18.0352ZM78.5742 25.6289Q78.2754 25.6289 77.7393 25.6992Q77.2031 25.7695 76.0254 25.7695Q74.8652 25.7695 73.4941 25.1719Q69.2051 23.3086 69.1875 18.1758Q69.1875 14.5195 71.5254 12.3574Q72.5977 11.373 74.1445 10.8457Q75.6914 10.3184 77.2734 10.3184L77.748 10.3184Q81.5098 10.3184 83.8477 12.8848Q84.9199 14.0625 85.4736 15.9434Q86.0273 17.8242 86.0273 19.7051L86.0273 21.1641Q86.0273 23.8887 85.2539 26.5869Q84.4805 29.2852 83.1797 30.9023Q81.8789 32.5195 79.5146 33.6709Q77.1504 34.8223 74.7246 34.8223L74.3379 34.8223Q72.8965 34.8223 72 34.374Q71.1035 33.9258 71.1035 33.0732Q71.1035 32.2207 72.1758 31.7637Q72.2988 31.7109 74.54 31.377Q76.7812 31.043 77.9941 30.2607Q79.207 29.4785 79.7959 28.4678Q80.3848 27.457 80.3848 26.666Q80.3848 25.6289 78.5742 25.6289ZM106.576 11.7422Q106.576 13.7285 104.748 13.7285Q104.52 13.7109 102.551 13.4648Q100.582 13.2188 98.8154 13.2188Q97.0488 13.2188 96.5215 14.0625Q95.9941 14.9062 95.9941 17.877Q95.9941 18.8438 96.6182 19.3711Q97.2422 19.8984 98.9121 19.8984Q99.3691 19.8984 100.477 19.6436Q101.584 19.3887 102.357 19.3887Q104.221 19.3887 104.221 21.0938Q104.221 22.3418 104.027 22.8691Q103.711 23.748 102.876 23.748Q102.041 23.748 100.916 23.5107Q99.791 23.2734 98.4199 23.2734Q97.0488 23.2734 96.416 23.8535Q95.7832 24.4336 95.7832 26.9561Q95.7832 29.4785 96.4248 30.252Q97.0664 31.0254 98.6045 31.0254Q100.143 31.0254 102.41 30.6123Q104.678 30.1992 105.319 30.1992Q105.961 30.1992 106.497 30.5859Q107.033 30.9727 107.033 32.2734Q107.033 33.5742 105.82 34.0488Q104.959 34.3828 100.16 34.3828L95.4844 34.3828Q92.1621 34.3828 91.1777 34.0049Q90.1934 33.627 90.1934 32.4316Q90.1934 32.0273 90.5449 30.7969Q90.8965 29.5664 90.9141 26.0332Q90.9141 22.5 91.0195 19.8633L91.1074 17.8945Q91.1777 16.1543 91.1777 15.1523Q91.1777 14.1504 90.791 13.0078Q90.4043 11.8828 90.4043 11.25Q90.4043 10.6172 90.7822 10.3359Q91.1602 10.0547 92.3203 9.84375Q93.4805 9.63281 100.248 9.63281L102.182 9.61523L102.814 9.61523Q104.924 9.61523 105.75 10.1074Q106.576 10.5996 106.576 11.7422ZM118.67 22.1484Q117.123 22.1484 116.218 23.2559Q115.312 24.3633 115.312 25.7344L115.312 26.6484Q115.312 28.7578 116.438 30.252Q117.562 31.7461 119.303 31.7461L119.602 31.7461Q121.201 31.7461 122.238 30.4717Q123.275 29.1973 123.275 27.3867L123.275 26.5957Q123.275 24.8027 122.265 23.458Q121.254 22.1133 119.566 22.1133L119.109 22.1133Q118.828 22.1484 118.67 22.1484ZM127.547 26.5781L127.547 27.0352Q127.547 30.7793 125.086 32.9414Q123.943 33.9434 122.256 34.4355Q120.604 34.9277 118.881 34.9277Q117.158 34.9102 115.506 34.1367Q112.166 32.5547 111.27 28.7754Q110.812 26.9121 110.812 24.6621L110.812 23.7129Q110.83 21.0938 111.498 18.5977Q112.852 13.5879 117.123 11.6016Q119.725 10.3887 122.484 10.3887Q123.943 10.3887 124.761 10.8721Q125.578 11.3555 125.578 12.2871Q125.578 13.2188 124.488 13.623Q124.26 13.7109 122.045 13.9922Q118.072 14.502 116.666 16.998Q116.244 17.7539 116.244 18.3779Q116.244 19.002 116.692 19.2041Q117.141 19.4062 118.406 19.4062L119.18 19.3711Q119.988 19.3359 120.894 19.3359Q121.799 19.3359 123.311 19.8984Q127.547 21.5156 127.547 26.543L127.547 26.5781ZM135.088 25.5586L136.441 25.5586L136.582 25.541L137.672 25.541Q140.625 25.541 140.801 25.2773Q140.977 24.9961 140.977 22.3594L140.977 18.7559L140.994 18.6152L140.994 17.9473L141.012 17.4023L141.012 16.6113Q141.012 16.3125 140.933 16.3125Q140.854 16.3125 139.368 18.4658Q137.883 20.6191 137.549 21.0586Q137.215 21.498 135.87 23.4404Q134.525 25.3828 134.525 25.418L134.525 25.4883Q134.525 25.5586 135.088 25.5586ZM147.674 26.9473Q147.674 28.2832 146.707 29.25Q145.758 30.1992 145.758 30.8145L145.793 32.2207Q145.793 33.7324 144.949 34.541Q144.457 35.0156 142.901 35.0156Q141.346 35.0156 140.783 34.3828Q139.975 33.4688 139.975 30.7617Q139.975 29.8125 137.725 29.0918Q136.635 28.7402 134.297 28.7402Q131.959 28.7402 131.449 28.459Q130.641 28.0195 130.641 27L130.641 26.7012Q130.641 25.6465 131.959 23.7129Q135.721 18.2285 140.01 12.6562Q140.871 11.5312 141.539 11.1006Q142.207 10.6699 143.385 10.6699L143.736 10.6699Q144.791 10.6699 145.072 11.8125Q145.16 12.1816 145.16 17.332Q145.16 22.4824 145.389 23.2646Q145.617 24.0469 146.584 25.4531Q146.672 25.5762 147.173 26.0244Q147.674 26.4727 147.674 26.9473Z" transform="translate(25.135 0)" style="fill:#FFFFFF;" />
              </g>
            </g>
          </g>
        </g>
        <g id="Magenta" opacity="1" clip-path="url(#clip_path_6)" transform="translate(1000 0)">
          <g>
            <use xlink:href="#path_4" style="fill:#B157D0;fill-rule:evenodd;mix-blend-mode:normal;" />
            <g>
              <g clip-path="url(#clip_path_8)" style="mix-blend-mode:normal;" transform="translate(-0.143 181.039)">
                <path d="M9.33398 21.2168Q8.8418 23.6777 8.8418 24.0117L8.80664 24.1699L8.80664 24.3984Q8.80664 24.5742 9.07031 24.5742L12.252 24.5742Q12.9199 24.5742 12.9199 23.8887L13.0078 23.4492Q13.2012 22.4824 13.2012 22.3066L13.3242 21.6211Q13.5352 20.5664 13.5352 20.3906L13.5703 20.2324L13.5703 20.0039Q13.5703 19.8105 12.8848 19.8105L12.0059 19.8105L11.9004 19.8281L11.5488 19.8281Q9.89648 19.8281 9.73828 19.8984Q9.33398 20.0742 9.33398 21.2168ZM20.8477 18.0527L20.8477 18.5625Q20.8477 19.6523 18.8965 19.8281Q17.6836 19.9336 17.3848 20.1797Q16.4355 20.9355 16.4355 23.8711Q16.4355 24.416 17.4375 24.5566Q19.3008 24.8027 19.5381 25.0137Q19.7754 25.2246 19.7754 26.0332Q19.7754 26.8418 19.3799 27.2197Q18.9844 27.5977 17.6924 27.7383Q16.4004 27.8789 15.9609 28.3711Q15.5215 28.8633 15.0557 30.876Q14.5898 32.8887 14.4668 33.0996Q14.0625 33.8203 12.7529 33.8203Q11.4434 33.8203 11.4434 32.6777Q11.4434 32.0449 11.7158 30.5068Q11.9883 28.9688 11.9883 28.4678Q11.9883 27.9668 11.751 27.8086Q11.5137 27.6504 10.2041 27.6504Q8.89453 27.6504 8.52539 27.9404Q8.15625 28.2305 7.76074 30.208Q7.36523 32.1855 6.89941 33.0205Q6.43359 33.8555 5.56348 33.8555Q4.69336 33.8555 4.30664 33.6182Q3.91992 33.3809 3.91992 32.3965L4.06055 31.2363Q4.23633 29.7949 4.23633 29.2236Q4.23633 28.6523 4.00781 28.2832Q3.7793 27.9141 2.6543 27.457Q1.5293 27 1.5293 26.165Q1.5293 25.3301 2.23242 24.9258Q2.51367 24.7676 3.66504 24.5918Q4.81641 24.416 5.15039 24.0117Q5.90625 23.0801 5.90625 20.7598Q5.90625 20.25 5.625 20.0654Q5.34375 19.8809 4.30664 19.8018Q3.26953 19.7227 2.87402 19.5205Q2.47852 19.3184 2.47852 18.4307Q2.47852 17.543 3.18164 17.0859Q3.44531 16.9102 4.75488 16.7432Q6.06445 16.5762 6.44238 16.04Q6.82031 15.5039 7.20703 13.5088Q7.59375 11.5137 7.96289 11.1094Q8.33203 10.7051 9.59766 10.7051Q10.8633 10.7051 10.8633 11.7422Q10.8633 12.2695 10.582 14.0361Q10.3008 15.8027 10.3008 15.873Q10.3008 16.7871 11.8652 16.7871Q13.4297 16.7871 13.7988 16.4971Q14.168 16.207 14.5723 14.2207Q14.9766 12.2344 15.4072 11.417Q15.8379 10.5996 17.1035 10.5996Q18.3691 10.5996 18.3691 11.6367L17.9648 15.0996Q17.9648 15.9609 18.2285 16.2422Q18.4922 16.5234 19.6699 16.875Q20.8477 17.2266 20.8477 18.0527ZM30.1641 14.625L30.1641 17.9473Q30.1641 19.2129 30.3398 19.5645Q30.5156 19.916 31.2539 19.916L32.9766 19.916L33.1172 19.8984L33.6621 19.8809L34.3477 19.8281Q35.7012 19.8281 36.624 18.8086Q37.5469 17.7891 37.5469 16.5234L37.5469 15.9434Q37.5469 14.6074 36.6152 13.6758Q35.6836 12.7441 34.1719 12.7441Q33.8906 12.709 33.75 12.709L33.0645 12.6738L31.9746 12.6738Q30.709 12.6738 30.4365 12.9814Q30.1641 13.2891 30.1641 14.625ZM30.1465 29.0566Q30.1465 30.6562 30.5596 30.9463Q30.9727 31.2363 32.7832 31.2363L34.0488 31.2363Q36.4219 31.2363 37.5205 30.1377Q38.6191 29.0391 38.6191 27.2637L38.6191 26.9297Q38.584 26.6133 38.584 26.4551Q38.584 25.1191 37.4326 24.0732Q36.2812 23.0273 34.5938 23.0273Q34.2773 22.9922 34.1191 22.9922L33.3457 22.957L32.2734 22.957Q30.6387 22.957 30.4014 23.3262Q30.1641 23.6953 30.1641 25.5234L30.1641 27.5625L30.1465 28.1602L30.1465 29.0566ZM33.0293 34.4531L32.5898 34.4531L32.1328 34.4355L31.2539 34.4355L29.9707 34.418Q26.4023 34.418 25.7344 34.2773Q24.6445 34.0488 24.6445 33.2578Q24.6445 32.8184 25.0312 31.4648Q25.418 30.1113 25.418 28.0195L25.4531 25.875L25.4531 16.3477Q25.4531 14.5547 25.2246 13.4824L24.5918 11.127Q24.5918 10.1074 25.2334 9.85254Q25.875 9.59766 27.7559 9.59766L31.6406 9.50977L32.959 9.49219L33.3984 9.49219Q40.0957 9.49219 41.748 13.2715Q42.1875 14.2734 42.1875 15.7764Q42.1875 17.2793 41.6162 18.3428Q41.0449 19.4062 40.7285 19.7051Q40.4121 20.0039 39.7793 20.5312Q39.1465 21.0586 39.1465 21.0938Q39.1641 21.1289 40.3594 21.8848Q43.4004 23.7832 43.4004 27.1406Q43.3828 34.4531 33.0293 34.4531ZM47.4434 14.7656Q47.4434 13.9043 48.9023 12.9727Q53.0508 10.3359 54.4658 10.3359Q55.8809 10.3359 56.0918 11.6895Q56.127 11.9004 56.127 19.4766Q56.127 27.0527 56.1797 27.3516Q56.3906 28.5117 57.2344 29.707Q58.0781 30.8672 58.0781 32.0625Q58.0781 34.3828 54.4395 34.3828L53.332 34.3828Q51.4512 34.3828 50.168 33.416Q49.4824 32.9062 49.4824 31.79Q49.4824 30.6738 50.291 29.7422Q51.0996 28.8105 51.3809 27.8877Q51.6621 26.9648 51.6621 22.4385Q51.6621 17.9121 51.1523 16.9805Q50.8359 16.418 49.1396 16.1104Q47.4434 15.8027 47.4434 14.7656ZM63.0352 31.4121Q63.0352 30.6035 63.4834 30.1729Q63.9316 29.7422 64.5029 29.7422Q65.0742 29.7422 66.9814 30.6035Q68.8887 31.4648 70.3125 31.4648Q72.334 31.4648 73.5117 30.0059Q74.373 28.9336 74.373 26.8418Q74.373 26.0508 73.9863 25.1016Q72.9668 22.623 68.7832 22.623L68.2559 22.6582L67.7109 22.7109Q67.0605 22.7637 66.6562 22.7637Q65.1094 22.7637 64.5645 21.999Q64.0195 21.2344 64.0195 19.2129Q64.0195 15.1348 64.6348 12.4805Q64.8457 11.5488 65.1797 11.1797Q65.9004 10.3711 70.3652 10.3711Q71.5254 10.3711 72.6504 10.3359L73.7754 10.2832Q75.2695 10.2129 75.4629 10.2129L76.0078 10.2305L76.5527 10.2305Q77.9062 10.2305 77.9062 11.1621Q77.9062 13.0957 76.7988 13.6934Q76.2012 14.0098 72.7734 14.0098Q69.3457 14.0098 68.7832 14.3262Q67.7109 14.9238 67.7109 17.4902Q67.7109 19.1602 68.625 19.1602L69.6973 19.0898Q70.2598 19.0547 71.3936 19.0547Q72.5273 19.0547 74.0039 19.6172Q76.9746 20.7246 78.1523 23.2207Q78.9082 24.8203 78.9082 26.6836Q78.9082 30.5332 76.4648 32.748Q74.0215 34.9453 70.1367 34.9453L69.5566 34.9453Q66.832 34.9453 64.9336 33.8379Q63.0352 32.7305 63.0352 31.4121ZM88.1016 34.8926L87.6797 34.8926Q85.9043 34.8926 85.9043 33.7324Q85.9043 32.3789 89.2617 24.2578Q90.0879 22.2715 91.5469 19.1426Q93.0059 16.0137 93.0059 15.3018Q93.0059 14.5898 92.3203 14.3438Q91.6348 14.0977 89.7188 14.0977Q87.8027 14.0977 86.2559 14.5811Q84.709 15.0645 84.0059 15.0645Q82.5645 15.0645 82.5645 13.2715Q82.5645 11.4785 83.7422 10.8281Q84.5508 10.3887 87.2051 10.3887L90.6855 10.3887Q96.3633 10.3887 97.2598 10.7139Q98.1562 11.0391 98.1562 12.2871Q98.1562 13.5352 95.625 19.1074Q93.0938 24.6621 91.7314 29.1006Q90.3691 33.5391 90.2988 33.6973Q89.7363 34.8926 88.1016 34.8926ZM117.633 22.7109L117.633 21.2695Q117.633 19.3711 117.141 17.6484Q116.666 15.9258 115.857 14.9414Q114.012 12.6914 110.602 12.6914L110.074 12.6914L109.828 12.709Q108.281 12.709 107.895 13.0166Q107.508 13.3242 107.49 14.1768Q107.473 15.0293 107.473 15.2754L107.455 15.7852L107.455 17.6133L107.473 18.1406L107.473 23.6426L107.455 24.416L107.455 25.9805L107.438 27.0176L107.438 28.5469L107.473 29.0566Q107.49 29.3203 107.49 29.5488Q107.49 30.6211 107.921 30.9199Q108.352 31.2188 109.775 31.2188L110.812 31.2188Q114.1 31.2188 115.98 28.793Q116.631 27.9492 117.132 26.2529Q117.633 24.5566 117.633 22.7109ZM110.883 9.49219Q113.502 9.49219 115.822 10.3008Q120.322 11.8477 121.852 16.3477Q122.678 18.7734 122.678 21.3398L122.678 22.2539Q122.678 24.9258 121.852 27.3516Q120.234 32.0977 115.629 33.6445Q113.361 34.418 110.672 34.418L108.088 34.418L105.188 34.3477Q103.359 34.3477 102.7 34.1543Q102.041 33.9609 102.041 33.2842Q102.041 32.6074 102.41 31.6143Q102.779 30.6211 102.841 29.6631Q102.902 28.7051 102.902 21.0938L102.902 14.4668Q102.814 13.4473 102.41 12.3311Q102.006 11.2148 102.006 10.6348Q102.006 10.0547 102.612 9.83496Q103.219 9.61523 104.994 9.61523L108.703 9.49219L110.883 9.49219ZM134.648 31.9219L135.105 31.9219Q136.986 31.9219 138.094 29.707Q139.201 27.4922 139.201 23.291L139.201 22.2363Q139.201 16.0488 136.916 14.1504Q136.072 13.4473 135.176 13.4473L134.719 13.4473Q132.785 13.4473 131.678 15.6709Q130.57 17.8945 130.57 21.8145L130.57 23.3789Q130.57 27.2285 131.73 29.6543Q132.311 30.8496 133.128 31.3857Q133.945 31.9219 134.648 31.9219ZM134.666 10.3711L135.404 10.3711Q137.338 10.3711 139.008 11.25Q142.33 13.0078 143.385 17.4199Q143.93 19.7227 143.93 22.0254L143.93 22.7812Q143.93 25.418 143.288 27.7998Q142.646 30.1816 141.565 31.6934Q140.484 33.2051 138.683 34.1367Q136.881 35.0684 134.859 35.0684L134.139 35.0684Q132.574 35.0684 131.062 34.2949Q128.057 32.748 126.791 28.3887Q126.07 25.8926 126.07 23.502L126.07 21.9902Q126.07 19.4414 126.738 17.1562Q128.021 12.7617 131.344 11.1621Q133.031 10.3711 134.666 10.3711Z" transform="translate(27.104 0)" style="fill:#F5F5FA;" />
              </g>
            </g>
          </g>
        </g>
        <g id="White" opacity="1" clip-path="url(#clip_path_6)" transform="translate(1200 0)">
          <g>
            <use xlink:href="#path_4" style="fill:#F5F5FA;fill-rule:evenodd;mix-blend-mode:normal;" />
            <g>
              <g clip-path="url(#clip_path_8)" style="mix-blend-mode:normal;" transform="translate(0 181.039)">
                <path d="M9.33398 21.2168Q8.8418 23.6777 8.8418 24.0117L8.80664 24.1699L8.80664 24.3984Q8.80664 24.5742 9.07031 24.5742L12.252 24.5742Q12.9199 24.5742 12.9199 23.8887L13.0078 23.4492Q13.2012 22.4824 13.2012 22.3066L13.3242 21.6211Q13.5352 20.5664 13.5352 20.3906L13.5703 20.2324L13.5703 20.0039Q13.5703 19.8105 12.8848 19.8105L12.0059 19.8105L11.9004 19.8281L11.5488 19.8281Q9.89648 19.8281 9.73828 19.8984Q9.33398 20.0742 9.33398 21.2168ZM20.8477 18.0527L20.8477 18.5625Q20.8477 19.6523 18.8965 19.8281Q17.6836 19.9336 17.3848 20.1797Q16.4355 20.9355 16.4355 23.8711Q16.4355 24.416 17.4375 24.5566Q19.3008 24.8027 19.5381 25.0137Q19.7754 25.2246 19.7754 26.0332Q19.7754 26.8418 19.3799 27.2197Q18.9844 27.5977 17.6924 27.7383Q16.4004 27.8789 15.9609 28.3711Q15.5215 28.8633 15.0557 30.876Q14.5898 32.8887 14.4668 33.0996Q14.0625 33.8203 12.7529 33.8203Q11.4434 33.8203 11.4434 32.6777Q11.4434 32.0449 11.7158 30.5068Q11.9883 28.9688 11.9883 28.4678Q11.9883 27.9668 11.751 27.8086Q11.5137 27.6504 10.2041 27.6504Q8.89453 27.6504 8.52539 27.9404Q8.15625 28.2305 7.76074 30.208Q7.36523 32.1855 6.89941 33.0205Q6.43359 33.8555 5.56348 33.8555Q4.69336 33.8555 4.30664 33.6182Q3.91992 33.3809 3.91992 32.3965L4.06055 31.2363Q4.23633 29.7949 4.23633 29.2236Q4.23633 28.6523 4.00781 28.2832Q3.7793 27.9141 2.6543 27.457Q1.5293 27 1.5293 26.165Q1.5293 25.3301 2.23242 24.9258Q2.51367 24.7676 3.66504 24.5918Q4.81641 24.416 5.15039 24.0117Q5.90625 23.0801 5.90625 20.7598Q5.90625 20.25 5.625 20.0654Q5.34375 19.8809 4.30664 19.8018Q3.26953 19.7227 2.87402 19.5205Q2.47852 19.3184 2.47852 18.4307Q2.47852 17.543 3.18164 17.0859Q3.44531 16.9102 4.75488 16.7432Q6.06445 16.5762 6.44238 16.04Q6.82031 15.5039 7.20703 13.5088Q7.59375 11.5137 7.96289 11.1094Q8.33203 10.7051 9.59766 10.7051Q10.8633 10.7051 10.8633 11.7422Q10.8633 12.2695 10.582 14.0361Q10.3008 15.8027 10.3008 15.873Q10.3008 16.7871 11.8652 16.7871Q13.4297 16.7871 13.7988 16.4971Q14.168 16.207 14.5723 14.2207Q14.9766 12.2344 15.4072 11.417Q15.8379 10.5996 17.1035 10.5996Q18.3691 10.5996 18.3691 11.6367L17.9648 15.0996Q17.9648 15.9609 18.2285 16.2422Q18.4922 16.5234 19.6699 16.875Q20.8477 17.2266 20.8477 18.0527ZM29.1797 21.4102Q29.1797 26.3672 30.7793 28.5117Q32.6602 31.0605 35.9824 31.0605Q37.3535 31.0605 39.665 30.1465Q41.9766 29.2324 42.3105 29.2324Q43.5059 29.2324 43.5059 30.3398L43.5059 30.7266Q43.5059 31.2715 42.7588 32.1064Q42.0117 32.9414 40.5703 33.5918Q38.1621 34.6816 35.2969 34.6816L34.7344 34.6816Q32.625 34.6816 30.375 33.7324Q24.1875 31.1133 24.1875 22.1836L24.1875 21.5859Q24.1875 19.1602 24.9609 16.752Q25.7344 14.3438 27.0615 12.8584Q28.3887 11.373 30.5859 10.3887Q32.7832 9.4043 34.6816 9.4043L35.7891 9.4043Q39.9023 9.4043 41.5811 10.5293Q43.2598 11.6543 43.2598 13.3242Q43.2598 14.3965 42.8467 14.8887Q42.4336 15.3809 41.8008 15.3809Q41.168 15.3809 39.1201 14.3965Q37.0723 13.4121 36.3867 13.2539Q35.6309 13.0781 34.9102 13.0781Q33.6797 13.0781 32.5547 13.6055Q29.1797 15.2227 29.1797 21.4102ZM58.9219 16.2949L58.9219 15.9258Q58.9219 14.6426 58.0518 13.667Q57.1816 12.6914 55.6875 12.6914L55.0723 12.6914Q53.8945 12.6914 52.998 13.4824Q52.1016 14.2734 52.1016 15.5215L52.1016 16.1191Q52.1016 17.4551 53.2617 18.6152Q54.4219 19.7754 55.8984 19.7754L56.2324 19.7754Q57.2168 19.7754 58.2891 18.3867Q58.9219 17.5781 58.9219 16.2949ZM59.4844 28.3535L59.4844 27.7734Q59.4844 26.0156 57.9463 24.6182Q56.4082 23.2207 54.791 23.2207L54.3867 23.2207Q53.2793 23.2207 52.2598 24.4688Q51.2402 25.7168 51.2402 27.0352L51.2402 27.7559Q51.2402 29.707 52.5586 30.7881Q53.877 31.8691 55.6523 31.8691L55.793 31.8516Q57.3047 31.8516 58.3945 30.8672Q59.4844 29.8828 59.4844 28.3535ZM62.877 15.8906Q62.877 17.2617 62.3672 18.2725Q61.8574 19.2832 60.9785 20.3379Q60.0996 21.3926 60.0996 21.4629Q60.1172 21.5508 61.1719 22.4648Q63.7383 24.6973 63.7383 27.9404Q63.7383 31.1836 61.207 33.1699Q60.1875 33.9785 58.6318 34.4707Q57.0762 34.9629 55.4414 34.9629L55.0195 34.9629Q51.627 34.9629 49.2891 33.1348Q48.1992 32.291 47.584 31.0518Q46.9688 29.8125 46.9688 28.582L46.9688 27.791Q46.9688 26.1387 47.7949 24.7412Q48.6211 23.3438 49.9395 22.3594Q50.5371 21.9023 50.5371 21.7617Q50.5195 21.6211 49.7109 20.7422Q47.8125 18.6855 47.8125 15.8027Q47.8125 14.6953 48.3486 13.5703Q48.8848 12.4453 49.9395 11.584Q52.084 9.84375 55.3184 9.84375L55.7402 9.84375Q57.2695 9.84375 58.7021 10.3447Q60.1348 10.8457 61.0312 11.6543Q62.877 13.3242 62.877 15.8906ZM72.2812 21.4102Q72.2812 26.3672 73.8809 28.5117Q75.7617 31.0605 79.084 31.0605Q80.4551 31.0605 82.7666 30.1465Q85.0781 29.2324 85.4121 29.2324Q86.6074 29.2324 86.6074 30.3398L86.6074 30.7266Q86.6074 31.2715 85.8604 32.1064Q85.1133 32.9414 83.6719 33.5918Q81.2637 34.6816 78.3984 34.6816L77.8359 34.6816Q75.7266 34.6816 73.4766 33.7324Q67.2891 31.1133 67.2891 22.1836L67.2891 21.5859Q67.2891 19.1602 68.0625 16.752Q68.8359 14.3438 70.1631 12.8584Q71.4902 11.373 73.6875 10.3887Q75.8848 9.4043 77.7832 9.4043L78.8906 9.4043Q83.0039 9.4043 84.6826 10.5293Q86.3613 11.6543 86.3613 13.3242Q86.3613 14.3965 85.9482 14.8887Q85.5352 15.3809 84.9023 15.3809Q84.2695 15.3809 82.2217 14.3965Q80.1738 13.4121 79.4883 13.2539Q78.7324 13.0781 78.0117 13.0781Q76.7812 13.0781 75.6562 13.6055Q72.2812 15.2227 72.2812 21.4102ZM102.023 16.2949L102.023 15.9258Q102.023 14.6426 101.153 13.667Q100.283 12.6914 98.7891 12.6914L98.1738 12.6914Q96.9961 12.6914 96.0996 13.4824Q95.2031 14.2734 95.2031 15.5215L95.2031 16.1191Q95.2031 17.4551 96.3633 18.6152Q97.5234 19.7754 99 19.7754L99.334 19.7754Q100.318 19.7754 101.391 18.3867Q102.023 17.5781 102.023 16.2949ZM102.586 28.3535L102.586 27.7734Q102.586 26.0156 101.048 24.6182Q99.5098 23.2207 97.8926 23.2207L97.4883 23.2207Q96.3809 23.2207 95.3613 24.4688Q94.3418 25.7168 94.3418 27.0352L94.3418 27.7559Q94.3418 29.707 95.6602 30.7881Q96.9785 31.8691 98.7539 31.8691L98.8945 31.8516Q100.406 31.8516 101.496 30.8672Q102.586 29.8828 102.586 28.3535ZM105.979 15.8906Q105.979 17.2617 105.469 18.2725Q104.959 19.2832 104.08 20.3379Q103.201 21.3926 103.201 21.4629Q103.219 21.5508 104.273 22.4648Q106.84 24.6973 106.84 27.9404Q106.84 31.1836 104.309 33.1699Q103.289 33.9785 101.733 34.4707Q100.178 34.9629 98.543 34.9629L98.1211 34.9629Q94.7285 34.9629 92.3906 33.1348Q91.3008 32.291 90.6855 31.0518Q90.0703 29.8125 90.0703 28.582L90.0703 27.791Q90.0703 26.1387 90.8965 24.7412Q91.7227 23.3438 93.041 22.3594Q93.6387 21.9023 93.6387 21.7617Q93.6211 21.6211 92.8125 20.7422Q90.9141 18.6855 90.9141 15.8027Q90.9141 14.6953 91.4502 13.5703Q91.9863 12.4453 93.041 11.584Q95.1855 9.84375 98.4199 9.84375L98.8418 9.84375Q100.371 9.84375 101.804 10.3447Q103.236 10.8457 104.133 11.6543Q105.979 13.3242 105.979 15.8906ZM115.383 21.4102Q115.383 26.3672 116.982 28.5117Q118.863 31.0605 122.186 31.0605Q123.557 31.0605 125.868 30.1465Q128.18 29.2324 128.514 29.2324Q129.709 29.2324 129.709 30.3398L129.709 30.7266Q129.709 31.2715 128.962 32.1064Q128.215 32.9414 126.773 33.5918Q124.365 34.6816 121.5 34.6816L120.938 34.6816Q118.828 34.6816 116.578 33.7324Q110.391 31.1133 110.391 22.1836L110.391 21.5859Q110.391 19.1602 111.164 16.752Q111.938 14.3438 113.265 12.8584Q114.592 11.373 116.789 10.3887Q118.986 9.4043 120.885 9.4043L121.992 9.4043Q126.105 9.4043 127.784 10.5293Q129.463 11.6543 129.463 13.3242Q129.463 14.3965 129.05 14.8887Q128.637 15.3809 128.004 15.3809Q127.371 15.3809 125.323 14.3965Q123.275 13.4121 122.59 13.2539Q121.834 13.0781 121.113 13.0781Q119.883 13.0781 118.758 13.6055Q115.383 15.2227 115.383 21.4102ZM138.199 21.4102Q138.199 26.3672 139.799 28.5117Q141.68 31.0605 145.002 31.0605Q146.373 31.0605 148.685 30.1465Q150.996 29.2324 151.33 29.2324Q152.525 29.2324 152.525 30.3398L152.525 30.7266Q152.525 31.2715 151.778 32.1064Q151.031 32.9414 149.59 33.5918Q147.182 34.6816 144.316 34.6816L143.754 34.6816Q141.645 34.6816 139.395 33.7324Q133.207 31.1133 133.207 22.1836L133.207 21.5859Q133.207 19.1602 133.98 16.752Q134.754 14.3438 136.081 12.8584Q137.408 11.373 139.605 10.3887Q141.803 9.4043 143.701 9.4043L144.809 9.4043Q148.922 9.4043 150.601 10.5293Q152.279 11.6543 152.279 13.3242Q152.279 14.3965 151.866 14.8887Q151.453 15.3809 150.82 15.3809Q150.188 15.3809 148.14 14.3965Q146.092 13.4121 145.406 13.2539Q144.65 13.0781 143.93 13.0781Q142.699 13.0781 141.574 13.6055Q138.199 15.2227 138.199 21.4102Z" transform="translate(22.867 0)" style="fill:#121212;" />
              </g>
            </g>
          </g>
        </g>
      </g>
    </g>
  </g>
</svg>